<?xml version="1.0" encoding="UTF-8" standalone="no"?>
<!-- Created with Inkscape (http://www.inkscape.org/) -->

<svg
   version="1.1"
   id="svg1"
   width="7.5265412in"
   height="7.4892454in"
   viewBox="0 0 722.54796 718.96756"
   sodipodi:docname="TECLogo.svg"
   inkscape:version="1.4 (86a8ad7, 2024-10-11)"
   xmlns:inkscape="http://www.inkscape.org/namespaces/inkscape"
   xmlns:sodipodi="http://sodipodi.sourceforge.net/DTD/sodipodi-0.dtd"
   xmlns="http://www.w3.org/2000/svg"
   xmlns:svg="http://www.w3.org/2000/svg">
  <defs
     id="defs1" />
  <sodipodi:namedview
     id="namedview1"
     borderopacity="0"
     inkscape:showpageshadow="false"
     inkscape:pageopacity="0.0"
     inkscape:pagecheckerboard="false"
     inkscape:deskcolor="#d1d1d1"
     inkscape:zoom="0.7755307"
     inkscape:cx="292.05807"
     inkscape:cy="391.34492"
     inkscape:window-width="1920"
     inkscape:window-height="1111"
     inkscape:window-x="384"
     inkscape:window-y="1071"
     inkscape:window-maximized="1"
     inkscape:current-layer="g1"
     showborder="false"
     borderlayer="false"
     inkscape:antialias-rendering="true"
     inkscape:clip-to-page="false"
     inkscape:document-units="in">
    <inkscape:page
       x="0"
       y="0"
       width="722.54797"
       height="718.96759"
       id="page2"
       margin="0"
       bleed="0" />
  </sodipodi:namedview>
  <g
     inkscape:groupmode="layer"
     inkscape:label="Image"
     id="g1"
     style="display:inline"
     transform="translate(-190.23491,-47.4784)">
    <path
       style="display:inline"
       d="m 513.39904,765.73406 c -3.79376,-0.4824 -7.20687,-1.2025 -7.58471,-1.6001 -0.37783,-0.3976 -1.75907,-4.28576 -3.06943,-8.6404 l -2.38247,-7.91753 -8.83695,-1.69557 c -4.86032,-0.93256 -13.88982,-2.86955 -20.06555,-4.30443 l -11.22861,-2.60887 -6.18259,6.75435 -6.18259,6.75435 -7.57849,-2.37674 c -4.16818,-1.3072 -7.61661,-2.40966 -7.66319,-2.44991 -0.0466,-0.0403 -0.60329,-4.21697 -1.23712,-9.2816 l -1.15242,-9.20841 -12.37113,-5.23849 c -6.80412,-2.88117 -15.13723,-6.64017 -18.51802,-8.35332 l -6.14689,-3.11482 -7.21394,5.41893 c -3.96766,2.9804 -7.43662,5.41879 -7.70878,5.41864 -0.27217,-1.5e-4 -3.38969,-1.69615 -6.92784,-3.76887 l -6.43299,-3.76859 0.1665,-6.81772 c 0.0916,-3.74974 0.40148,-7.99261 0.68868,-9.4286 0.46836,-2.34181 -0.26278,-3.15364 -7.09434,-7.8772 -4.18908,-2.89647 -11.17939,-7.98964 -15.53403,-11.31816 -4.35464,-3.32852 -8.42306,-6.36259 -9.04094,-6.74237 -0.61787,-0.37979 -4.48559,0.8629 -8.59493,2.76153 -4.10933,1.89863 -8.09665,3.45206 -8.8607,3.45206 -0.76405,0 -3.94802,-2.33815 -7.0755,-5.19588 l -5.68632,-5.19588 2.97532,-8.80749 2.97531,-8.80749 -9.07808,-9.99663 c -4.99294,-5.49815 -11.08221,-12.30409 -13.5317,-15.12431 l -4.45361,-5.12767 -9.2138,2.01697 c -5.06759,1.10933 -9.34794,1.85802 -9.51189,1.66375 -0.16394,-0.19426 -2.33478,-3.14585 -4.82408,-6.55907 l -4.526,-6.20586 3.20928,-5.67043 c 1.7651,-3.11873 3.96478,-6.82039 4.88818,-8.2259 1.65096,-2.51292 1.59517,-2.69415 -3.35134,-10.88659 -2.76663,-4.58213 -7.2609,-12.45072 -9.98726,-17.48577 l -4.95702,-9.15464 h -9.66497 -9.66498 l -3.11559,-6.75935 c -1.71357,-3.71764 -3.11558,-7.22631 -3.11558,-7.79705 0,-0.57073 2.83982,-4.10497 6.31072,-7.85386 l 6.31073,-6.81617 -1.87749,-4.7797 c -1.03262,-2.62883 -3.81947,-11.03647 -6.19301,-18.68363 -2.37354,-7.64716 -4.9252,-14.21654 -5.67035,-14.59861 -0.74516,-0.38208 -4.48215,-1.23111 -8.30444,-1.88673 -3.82228,-0.65563 -7.52033,-1.54478 -8.21788,-1.97589 -1.26576,-0.78229 -4.05681,-10.70719 -4.06562,-14.45726 -0.003,-1.19168 1.65704,-3.18357 4.17093,-5.00533 2.29657,-1.66428 5.77759,-4.19583 7.7356,-5.62567 l 3.56001,-2.59972 -1.2989,-8.72485 c -0.71439,-4.79866 -1.60159,-13.72193 -1.97154,-19.82947 l -0.67264,-11.10462 -3.56786,-1.15509 c -1.96232,-0.63531 -6.12868,-2.43639 -9.25857,-4.00241 l -5.69072,-2.84732 v -7.75676 -7.75677 l 6.68041,-3.06213 c 3.67423,-1.68417 7.90515,-3.52052 9.40206,-4.08078 2.44751,-0.91604 2.72165,-1.49524 2.72165,-5.75024 0,-4.82278 2.52821,-28.68206 3.45676,-32.62215 0.4149,-1.76055 -0.47113,-2.83016 -4.68909,-5.66063 -2.86036,-1.91945 -6.48129,-4.53042 -8.04651,-5.80216 l -2.84586,-2.31225 1.25999,-7.05045 c 0.69299,-3.87774 1.53812,-7.50048 1.87807,-8.05053 0.33995,-0.55004 4.81152,-1.84726 9.93683,-2.88271 l 9.31876,-1.88263 3.70846,-12.27952 c 2.03965,-6.75374 4.80478,-15.17437 6.14472,-18.71252 l 2.43626,-6.43299 -6.33074,-7.07585 c -3.48191,-3.89171 -6.33074,-7.52443 -6.33074,-8.07269 0,-0.54826 1.3108,-3.91837 2.91289,-7.48913 3.41052,-7.60141 4.47296,-8.09836 15.52645,-7.26238 l 7.335,0.55474 2.58601,-5.12116 c 1.4223,-2.81663 5.86637,-10.57187 9.87571,-17.23386 4.00934,-6.66198 7.28971,-12.26925 7.28971,-12.46059 0,-0.19134 -2.21752,-4.03749 -4.92781,-8.54701 l -4.92782,-8.19912 2.13944,-3.09286 c 1.17669,-1.70108 3.39635,-4.71844 4.93259,-6.70524 l 2.79315,-3.61237 8.44589,1.84567 c 4.64523,1.01511 8.8157,2.07422 9.26771,2.35358 0.45201,0.27935 3.20093,-2.26583 6.10871,-5.65598 2.90779,-3.39014 8.99921,-10.24632 13.53649,-15.23596 l 8.2496,-9.07206 -3.16991,-9.07768 -3.16991,-9.07767 5.84548,-5.30996 c 3.21501,-2.92049 6.17142,-5.33043 6.5698,-5.35543 0.39837,-0.025 4.57203,1.73219 9.27478,3.90488 l 8.55047,3.95033 4.58088,-3.78392 c 2.51949,-2.08116 8.81182,-6.77593 13.98295,-10.43282 15.54591,-10.99368 14.04338,-9.1344 12.89126,-15.95198 -2.00719,-11.877335 -1.81626,-12.480815 5.25803,-16.619115 3.45015,-2.01825 6.9017,-3.64957 7.6701,-3.62516 0.76841,0.0244 4.50649,2.43196 8.30684,5.35013 6.8893,5.290045 6.91858,5.301075 9.89691,3.730165 1.64294,-0.866555 9.89026,-4.566535 18.32738,-8.222185 l 15.3402,-6.64662 1.03923,-9.004271 c 0.57157,-4.95235 1.46229,-9.40795 1.97938,-9.90133 0.51708,-0.49339 4.05768,-1.85178 7.86799,-3.01865 l 6.92784,-2.12158 2.97035,3.26611 c 1.6337,1.79637 4.41053,5.0296 6.17074,7.18497 l 3.20039,3.91885 11.14885,-2.677 c 6.13186,-1.47235 14.86913,-3.30415 19.41613,-4.07068 4.54701,-0.76653 8.59152,-1.77072 8.9878,-2.23155 0.39628,-0.46082 1.26997,-2.84198 1.94155,-5.29146 0.67157,-2.44949 1.89993,-6.29236 2.72967,-8.53973 l 1.50862,-4.08612 7.91808,-0.6907 c 4.35494,-0.37989 8.07018,-0.53861 8.25608,-0.3527 0.1859,0.1859 2.33613,3.84378 4.77828,8.12862 l 4.44028,7.79061 20.21447,0.11212 20.21447,0.11213 4.35271,-7.79278 c 2.39399,-4.28603 4.85195,-7.98436 5.46213,-8.2185 0.61017,-0.23415 4.39965,-0.0676 8.42105,0.3701 l 7.31164,0.79581 2.89917,8.90722 c 1.59454,4.89897 2.97715,9.02798 3.07247,9.17557 0.0953,0.14759 3.91234,0.91762 8.48228,1.71118 4.56993,0.79355 13.35462,2.60787 19.52154,4.03182 l 11.21257,2.589 6.60186,-7.07402 6.60186,-7.07402 7.60743,2.59478 7.60743,2.59478 0.59273,5.62237 c 1.55117,14.713611 0.8674,13.303581 7.72336,15.926811 3.38788,1.29627 11.62338,4.93567 18.30112,8.08756 l 12.14134,5.730685 7.15279,-5.380935 c 3.93404,-2.95952 7.66491,-5.38095 8.29083,-5.38095 0.62591,0 4.09164,1.67011 7.70161,3.71134 6.41523,3.62746 6.5525,3.78965 6.07274,7.175265 -0.26997,1.90516 -0.76439,6.35876 -1.09871,9.8969 -0.59941,6.34375 -0.56717,6.45684 2.32392,8.15025 1.61247,0.94448 8.66395,5.99655 15.66996,11.22683 7.00601,5.23027 13.04287,9.69866 13.41525,9.92974 0.37238,0.23108 2.37651,-0.45591 4.45361,-1.52663 2.07711,-1.07073 5.93248,-2.86185 8.5675,-3.98025 4.7329,-2.00883 4.82282,-2.01049 7.42268,-0.13679 1.44745,1.04317 4.13914,3.46593 5.98153,5.3839 3.28105,3.41565 3.32654,3.57958 2.21663,7.98741 -0.62324,2.4751 -1.96353,6.61415 -2.97843,9.19787 l -1.84527,4.69769 7.91512,8.43191 c 4.35332,4.63755 10.3544,11.38421 13.33574,14.99256 l 5.42062,6.56064 5.33142,-1.39222 c 2.93228,-0.76573 7.30664,-1.76124 9.72079,-2.21225 l 4.38936,-0.82002 4.53088,6.29827 c 2.49198,3.46406 4.53087,6.66918 4.53087,7.12251 0,0.45332 -2.1616,4.42079 -4.80355,8.81659 l -4.80355,7.99237 5.85295,9.73261 c 3.21912,5.35294 7.68162,13.11282 9.91666,17.24419 l 4.06372,7.51158 9.72834,-0.46845 9.72834,-0.46846 3.50258,7.68591 c 3.99199,8.75984 4.41257,7.2889 -4.87052,17.03401 l -4.91221,5.15668 4.56513,13.64744 c 2.51082,7.5061 5.26221,16.10132 6.11419,19.1005 l 1.54906,5.45306 9.04849,1.66667 c 4.97667,0.91667 9.41379,2.03198 9.86028,2.47846 0.44648,0.44648 1.5076,4.11956 2.35803,8.16239 l 1.54625,7.35061 -2.74787,2.22177 c -1.51132,1.22198 -5.11597,3.6976 -8.01032,5.50138 l -5.26246,3.27961 0.46547,4.45361 c 0.25601,2.44949 0.99687,10.02062 1.64636,16.82475 1.89397,19.84153 1.15713,18.31253 10.88731,22.59195 l 8.41237,3.69984 0.28428,8.512 0.28427,8.512 -8.91263,3.77397 -8.91263,3.77397 -0.45901,4.01143 c -0.25245,2.20629 -0.9531,9.13308 -1.55701,15.39288 -0.6039,6.25979 -1.34777,13.38717 -1.65303,15.83862 l -0.55504,4.45717 6.95097,4.74939 c 3.82304,2.61216 7.44069,5.33946 8.03923,6.06066 0.79934,0.96314 0.64696,3.31965 -0.57393,8.87589 -1.34749,6.13237 -2.05405,7.65497 -3.73182,8.04187 -1.13829,0.26249 -5.39191,1.15747 -9.45247,1.98884 -7.15658,1.46526 -8.90019,2.48848 -8.9319,5.24158 -0.008,0.72373 -2.47366,8.67979 -5.47851,17.68014 l -5.46336,16.36425 6.49197,7.25364 6.49197,7.25364 -3.21586,7.4786 -3.21586,7.4786 -9.93646,0.002 -9.93647,0.002 -2.96907,5.68225 c -1.63299,3.12523 -5.97526,10.74252 -9.64948,16.92729 -3.67423,6.18478 -6.68041,11.62741 -6.68041,12.09473 0,0.46733 2.00412,4.15075 4.4536,8.18538 2.44949,4.03464 4.45361,7.74689 4.45361,8.24946 0,1.64059 -8.89695,13.18627 -10.15568,13.17915 -0.67417,-0.004 -4.97733,-0.90627 -9.56257,-2.00545 -4.58525,-1.09919 -8.64174,-1.65277 -9.01442,-1.23018 -0.37269,0.42258 -3.70121,4.33123 -7.39672,8.68586 -3.69551,4.35464 -9.41906,10.69596 -12.71901,14.09183 l -5.99991,6.1743 2.68188,8.23515 c 1.47504,4.52933 2.68189,8.90307 2.68189,9.71941 0,0.81635 -2.46977,3.61652 -5.48839,6.22261 -6.25366,5.39902 -6.59247,5.40748 -16.82121,0.42015 l -6.22933,-3.03731 -11.70991,8.79528 c -6.44046,4.8374 -13.85357,10.12343 -16.47358,11.74673 l -4.76366,2.95144 0.59698,5.4433 c 0.32834,2.99382 0.84312,7.27382 1.14394,9.51111 l 0.54696,4.06781 -7.11031,4.0994 c -3.91067,2.25466 -7.62613,3.80639 -8.25657,3.44828 -0.63044,-0.35811 -4.09143,-2.80554 -7.69109,-5.43873 l -6.54484,-4.78762 -13.24898,6.31101 c -7.28694,3.47105 -15.56426,7.12728 -18.39406,8.12496 -5.68302,2.00361 -5.39677,1.37661 -6.76768,14.82382 l -0.61329,6.01572 -6.67317,2.14923 c -3.67024,1.18208 -7.33931,2.14924 -8.15349,2.14924 -0.81417,0 -3.9001,-2.86921 -6.85762,-6.37602 -2.95751,-3.50681 -5.88609,-6.40166 -6.50794,-6.43299 -0.62185,-0.0313 -6.63422,1.23893 -13.36082,2.82281 -6.7266,1.58389 -15.38576,3.39321 -19.24258,4.02072 l -7.01239,1.14093 -2.74724,8.78781 -2.74723,8.78776 -5.58058,0.589 c -3.06932,0.3239 -6.74711,0.7724 -8.17286,0.9965 -2.34155,0.3682 -3.02641,-0.361 -7.08055,-7.53925 l -4.48826,-7.94685 -20.6308,-0.0295 -20.63079,-0.0295 -4.45361,7.71152 c -2.44948,4.24133 -4.89897,7.79418 -5.4433,7.89508 -0.54433,0.101 -4.09367,-0.2111 -7.88742,-0.6936 z m 64.49331,-31.55668 c 96.29089,-7.80755 183.74358,-57.39727 239.91809,-136.04465 12.30288,-17.22469 19.54139,-29.48448 29.03056,-49.16873 21.55677,-44.71717 32.19747,-91.59334 32.19747,-141.84158 0,-75.87694 -25.30274,-147.23145 -73.35909,-206.87492 -11.09125,-13.76551 -35.8002,-38.3736 -49.34137,-49.13994 C 706.31504,111.33515 653.0999,89.313075 586.60605,80.867214 c -14.50071,-1.84184 -57.19543,-1.58293 -73.3286,0.44468 -76.72323,9.642551 -143.94576,43.075096 -197.08469,98.018346 -76.10257,78.68661 -107.59532,188.82793 -84.82631,296.66769 20.18116,95.58302 83.21924,177.78785 171.15713,223.19754 53.38291,27.56606 115.06977,39.87113 175.36877,34.98191 z m -42.25537,-10.45082 c -70.38671,-4.80497 -128.43417,-26.84997 -181.2758,-68.8441 -55.30604,-43.95263 -96.62303,-110.10669 -111.53401,-178.58098 -19.12354,-87.81925 -1.1547,-178.62468 49.62652,-250.78731 16.02351,-22.77021 41.87443,-50.37078 62.06989,-66.27092 48.00523,-37.79514 101.85333,-60.023825 162.20127,-66.957275 18.13723,-2.0838 52.74028,-2.04794 70.87089,0.0734 56.20464,6.57629 107.492,26.823305 151.96187,59.990885 103.24823,77.00702 149.87901,206.63389 119.16183,331.25275 -22.05571,89.47942 -83.05411,165.62579 -165.97576,207.19314 -33.94049,17.01385 -69.17879,27.30879 -107.77075,31.48544 -10.54491,1.14123 -40.80313,2.02741 -49.33595,1.44492 z m 38.10309,-16.24242 c 55.90645,-4.55574 105.09347,-21.96963 148.94846,-52.73286 54.98459,-38.57038 94.68709,-92.24087 115.40346,-156.0043 1.84295,-5.67247 3.24142,-10.42025 3.1077,-10.55062 -0.21011,-0.20485 -30.03561,-8.16933 -74.38185,-19.86263 -7.02785,-1.85312 -20.25198,-5.36107 -29.38695,-7.79546 -9.13498,-2.43439 -17.24661,-4.42616 -18.02586,-4.42616 -0.89739,0 -2.58575,3.35624 -4.60525,9.15464 -11.39542,32.71864 -34.35773,62.95445 -63.6191,83.77099 -56.91538,40.4896 -135.27226,42.02733 -193.50962,3.79757 -32.40621,-21.27296 -57.16026,-52.77803 -69.51749,-88.47654 l -3.14064,-9.07292 -4.6055,1.34173 c -2.53302,0.73795 -21.75189,5.85896 -42.70859,11.38003 -20.9567,5.52106 -46.2877,12.22896 -56.29112,14.90645 -10.00341,2.67748 -18.35393,4.86815 -18.55671,4.86815 -1.83962,0 5.49282,21.95855 13.39744,40.12149 35.31455,81.14439 107.17712,144.33234 191.85927,168.69966 19.35195,5.56854 41.08108,9.31999 65.05503,11.2315 9.12079,0.72723 29.5119,0.55098 40.57732,-0.35072 z m -62.84536,-20.85841 c -8.98144,-1.52754 -17.6943,-3.02879 -19.36191,-3.33613 l -3.032,-0.55879 7.25534,-44.2131 c 3.99044,-24.3172 7.35897,-44.31089 7.48562,-44.43041 0.12665,-0.11953 4.4612,0.5268 9.63233,1.43629 7.14059,1.25586 9.35048,2.00657 9.18761,3.12106 -0.21624,1.47967 -9.62987,59.57589 -11.14258,68.76643 -0.44797,2.72165 -0.63639,5.13435 -0.41872,5.36155 0.21766,0.2272 4.7377,1.12991 10.04452,2.00601 5.30682,0.8761 9.62754,2.02629 9.60161,2.55598 -0.18744,3.82839 -1.78283,12.31872 -2.29369,12.20648 -0.34553,-0.0759 -7.97669,-1.38783 -16.95813,-2.91537 z m 61.26689,2.07624 c -8.09569,-1.45797 -13.59215,-6.97562 -16.21774,-16.28026 -1.32885,-4.70921 -8.43059,-62.58812 -8.43059,-68.70894 v -2.82319 l 9.15464,-0.97244 c 5.03505,-0.53484 9.24022,-0.92109 9.34483,-0.85833 0.10461,0.0628 1.78927,14.13161 3.74368,31.26412 4.00077,35.07101 4.861,40.22012 7.14006,42.73846 2.13107,2.3548 6.75683,2.25088 9.21473,-0.20701 2.66054,-2.66054 2.58924,-4.6359 -1.42033,-39.3497 -1.86985,-16.18859 -3.53995,-30.98959 -3.71134,-32.89111 l -0.31163,-3.4573 9.40206,-1.08831 c 5.17113,-0.59858 9.47621,-1.04691 9.56683,-0.99631 0.69,0.3853 7.44882,64.00151 7.39842,69.63638 -0.11107,12.41856 -4.95319,19.5221 -15.29911,22.44427 -6.18703,1.7475 -14.72342,2.42331 -19.57451,1.54967 z m 53.35726,-54.72784 -18.48925,-40.78985 8.0975,-3.8088 c 22.07532,-10.38349 30.77352,-12.40135 37.84035,-8.7784 5.14984,2.64017 7.69597,5.50176 10.7593,12.09235 3.83892,8.25926 3.33713,14.00998 -1.70556,19.54639 l -2.02822,2.22681 h 4.66555 c 8.93898,0 14.49543,4.5801 19.08151,15.72861 4.39268,10.67837 2.56184,21.1134 -4.80193,27.36906 -2.92123,2.48163 -27.99407,15.11977 -32.95061,16.60897 -1.77554,0.53347 -3.88354,-3.60611 -20.46864,-40.19514 z m 37.78822,17.18391 c 4.49869,-3.16262 5.34532,-6.32867 3.37092,-12.6058 -2.23134,-7.09399 -6.92159,-12.21332 -11.18967,-12.21332 -2.89984,0 -9.99568,2.33255 -9.99568,3.28579 0,0.51344 8.73871,20.27481 10.0564,22.74115 1.08243,2.026 3.74848,1.61093 7.75803,-1.20782 z m -17.03197,-36.48337 c 4.74576,-3.10254 5.43003,-8.31452 1.90802,-14.53296 -2.86406,-5.05677 -6.20155,-6.95253 -10.74074,-6.10097 -1.91518,0.35929 -4.2538,1.2175 -5.19693,1.90713 -1.88865,1.38102 -2.14801,0.51558 4.75143,15.85507 2.78966,6.20222 3.73582,6.49507 9.27822,2.87173 z m -204.1639,53.29631 c -9.37052,-2.27873 -19.15023,-8.96472 -22.1367,-15.13395 -4.35497,-8.99616 -2.76256,-15.75106 10.29842,-43.68517 12.48059,-26.69281 17.84581,-32.07758 31.01215,-31.12522 7.06463,0.51101 17.34306,5.21015 22.09225,10.10023 6.75136,6.95166 7.19775,16.1851 1.3952,28.85954 l -2.43979,5.3292 -7.73963,-3.54013 c -4.25679,-1.94708 -8.09707,-3.87102 -8.53394,-4.27544 -0.43687,-0.40442 0.29639,-3.20158 1.62947,-6.21591 3.99279,-9.02841 4.15383,-11.07114 1.06435,-13.50132 -3.83164,-3.01397 -6.81086,-2.66752 -9.65786,1.12312 -1.32869,1.76907 -6.52803,12.12371 -11.5541,23.01031 -9.23495,20.00312 -11.86281,26.38003 -11.86281,28.7869 0,2.1701 4.1414,5.35743 6.96107,5.35743 3.23915,0 4.81825,-1.73606 8.7771,-9.64949 1.70195,-3.40206 3.328,-6.18557 3.61345,-6.18557 1.59507,0 16.27725,7.35852 16.27725,8.15795 0,0.52507 -1.61194,4.0222 -3.5821,7.77141 -6.61344,12.58541 -14.95209,17.40884 -25.61378,14.81611 z M 581.6576,562.0288 c 32.35056,-6.4804 59.78812,-21.4735 82.69704,-45.18934 22.35554,-23.14297 35.33506,-47.90298 42.21023,-80.52117 2.75086,-13.05099 2.47038,-47.44434 -0.49506,-60.70805 -7.20623,-32.23168 -20.72502,-56.96034 -43.67675,-79.89379 -13.51175,-13.50099 -24.53564,-21.53696 -40.61123,-29.60393 -52.97714,-26.58473 -116.33746,-20.92351 -164.33041,14.68287 -4.08248,3.02882 -11.87629,9.99063 -17.31959,15.47068 -42.17595,42.46072 -56.62543,103.8697 -37.8445,160.83573 3.98887,12.09897 13.68273,31.25885 21.12052,41.74464 7.6658,10.80724 26.38346,29.4372 37.28705,37.11234 20.71773,14.5834 47.15656,24.83575 72.20044,27.99762 11.14463,1.40704 37.27135,0.37424 48.76226,-1.9276 z m -46.8704,-23.6323 c -1.8241,-1.4029 -2.95486,-4.37248 -5.17339,-13.58624 -1.56148,-6.48501 -2.84919,-12.34763 -2.86156,-13.02805 -0.0141,-0.77491 1.37156,-1.23711 3.70874,-1.23711 5.87371,0 17.83906,-3.7229 26.1084,-8.12337 18.56423,-9.87882 33.71469,-28.02394 42.1501,-50.48153 5.4511,-14.51246 7.45741,-25.85655 7.57637,-42.8384 0.0921,-13.1428 -0.15188,-15.52639 -2.12718,-20.78351 -2.79028,-7.42614 -10.12091,-18.28129 -15.39321,-22.79419 -2.20563,-1.88794 -3.72022,-3.43261 -3.36575,-3.43261 0.35447,0 4.25737,1.31853 8.6731,2.93008 30.7521,11.22312 51.52965,34.87342 55.46856,63.13776 0.90019,6.45949 0.82691,8.13079 -0.4662,10.63319 -4.18201,8.09292 -6.5616,14.9748 -6.5616,18.97642 0,4.84846 0.97643,7.07742 7.55574,17.248 5.40981,8.36272 6.43627,11.48904 4.94063,15.04795 -1.4624,3.47982 -18.00071,20.36427 -21.10157,21.54321 -3.85277,1.46482 -4.44608,1.25199 -15.7624,-5.65447 -14.03225,-8.56401 -16.56798,-8.89638 -28.46191,-3.73061 -5.4033,2.34676 -9.38304,4.75905 -10.54614,6.39246 -1.02741,1.44287 -3.19522,8.14564 -4.81736,14.89506 -4.08112,16.9808 -3.74338,16.73191 -22.66631,16.70328 -12.50641,-0.0189 -14.86961,-0.2734 -16.87706,-1.81732 z m -66.94403,-27.66755 c -4.67621,-2.94891 -19.16243,-18.59422 -19.886,-21.47716 -0.79722,-3.17635 0.18621,-5.4381 7.22924,-16.62621 7.23907,-11.49953 7.62853,-14.6774 3.13402,-25.57252 -4.84977,-11.75629 -6.27401,-12.86513 -21.24508,-16.54029 -6.90297,-1.69456 -13.22778,-3.64238 -14.05514,-4.32847 -3.13686,-2.6013 -4.16758,-7.43238 -4.11291,-19.27752 0.0634,-13.73625 1.69295,-19.33184 6.59108,-22.63268 3.19343,-2.15206 20.50565,-6.81097 21.96276,-5.91042 0.43784,0.2706 1.05324,3.95717 1.36755,8.19238 2.34654,31.61825 31.56141,61.65536 69.51052,71.46689 8.77948,2.26988 28.08284,5.02493 35.04928,5.00237 12.55807,-0.0407 27.04827,-6.27099 36.79446,-15.82043 l 6.56553,-6.43299 -1.45088,4.94846 c -9.11498,31.088 -37.99292,57.26819 -65.73487,59.59397 -6.03099,0.50562 -7.37288,0.23701 -15.21435,-3.04549 -12.5107,-5.23708 -14.64815,-5.01423 -27.67528,2.88545 -12.33902,7.4824 -14.69751,8.18064 -18.82993,5.57466 z m 40.57731,-61.38468 C 480.7846,438.41034 460.07646,416.2648 454.97632,392.1904 c -2.23476,-10.54883 -1.90309,-15.94358 1.48541,-24.16077 1.63299,-3.96004 2.96907,-8.3172 2.96907,-9.68257 0,-1.36538 -2.66941,-6.80171 -5.93203,-12.08073 -9.90603,-16.0283 -9.62646,-18.84621 3.20091,-32.26388 15.02021,-15.71141 18.28828,-16.3023 34.55641,-6.24804 7.07428,4.37215 10.98069,6.192 13.1236,6.11378 3.3694,-0.12299 15.85584,-5.49894 16.97391,-7.30801 0.38905,-0.62949 1.96345,-6.25902 3.49867,-12.51006 4.68202,-19.06402 5.98642,-20.03213 26.99779,-20.03741 13.24046,-0.003 15.06843,0.20636 18.09262,2.07542 4.142,2.55989 6.49776,7.10225 8.60857,16.59898 2.44827,11.01496 2.44894,11.01262 -3.16833,11.01262 -15.15081,0 -34.81921,9.58712 -48.57421,23.67688 -19.26663,19.73554 -30.5623,50.35743 -30.14643,81.72519 0.19511,14.71582 6.25249,28.26064 17.23082,38.52959 5.68554,5.31816 4.5434,5.67564 -5.47262,1.71288 z m 146.96908,-19.23396 c 0,-5.26576 -3.60698,-18.07164 -7.07351,-25.11318 -4.97181,-10.09918 -11.57617,-18.48434 -21.74042,-27.6025 -11.94038,-10.7115 -33.03298,-20.2883 -50.85618,-23.09054 -3.81031,-0.59907 -9.85916,-1.54146 -13.44189,-2.09421 -19.02937,-2.93586 -35.27365,2.02232 -48.62778,14.84244 -3.69261,3.54496 -6.71383,6.11595 -6.71383,5.71332 0,-0.40263 1.05373,-3.53156 2.34162,-6.95318 12.5639,-33.3792 37.32824,-54.54029 66.44188,-56.77446 7.31799,-0.56158 8.50648,-0.37205 15.69528,2.5029 4.94382,1.97714 8.54989,2.87203 9.89691,2.45603 1.16553,-0.35996 6.38399,-3.26509 11.59656,-6.45585 15.90416,-9.73537 17.94995,-9.36779 32.83912,5.90039 14.35945,14.72499 14.5293,15.98665 4.37419,32.49223 -2.95586,4.80431 -5.67255,9.70755 -6.03707,10.89609 -0.94375,3.0771 5.10569,18.05609 7.77457,19.25059 1.12531,0.50365 7.09026,2.19273 13.25546,3.75351 17.43963,4.41503 18.95651,6.61639 18.87737,27.39562 -0.0738,19.38099 -0.13591,19.46956 -16.23115,23.14734 -4.89897,1.11942 -9.6866,2.27616 -10.63917,2.57053 -1.41535,0.43738 -1.73196,-0.0813 -1.73196,-2.83707 z m -355.48684,16.07952 c 5.1109,-3.11603 6.12602,-6.85842 6.12602,-22.58455 0,-10.58893 -0.31964,-14.03154 -1.38486,-14.9156 -0.76168,-0.63213 -6.44003,-2.84172 -12.61856,-4.91019 l -11.23371,-3.76085 v -8.3244 -8.3244 h 5.4433 5.44331 l 0.29465,6.18557 0.29465,6.18556 h 6.88061 6.88061 l -0.0217,-7.6701 c -0.0437,-15.4307 -4.89669,-19.69308 -21.47287,-18.8597 -16.4443,0.82674 -18.09303,3.09707 -18.09303,24.91426 v 15.3075 l 4.20618,1.57846 c 2.3134,0.86814 7.99175,2.83826 12.61856,4.37803 l 8.41238,2.79959 v 7.8037 c 0,7.62129 -0.0636,7.82606 -2.72166,8.76084 -1.74657,0.61424 -3.69673,0.61591 -5.4433,0.005 -2.45962,-0.8608 -2.7512,-1.47263 -3.02862,-6.35502 -0.16884,-2.97138 -0.83688,-5.73944 -1.48454,-6.15123 -1.41603,-0.90034 -8.79983,-1.02009 -10.99352,-0.1783 -1.25237,0.48058 -1.56548,2.23287 -1.56548,8.76086 0,6.85532 0.36081,8.69554 2.25651,11.50856 3.3629,4.99022 5.86053,5.82098 17.5373,5.83321 8.69342,0.009 10.92718,-0.31554 13.66781,-1.98646 z m 29.66119,-11.16912 0.27744,-12.67902 3.14104,0.30789 c 3.09599,0.30347 3.17848,0.44981 5.75234,10.2048 1.43622,5.4433 2.91257,11.12165 3.28079,12.61855 0.64227,2.61104 0.92347,2.72165 6.91867,2.72165 3.43705,0 6.50349,-0.2543 6.8143,-0.56512 0.31082,-0.31081 -0.99218,-6.41937 -2.89555,-13.57457 -3.42083,-12.85966 -3.43825,-13.02763 -1.51257,-14.58695 4.44737,-3.60126 5.16259,-6.88597 5.16259,-23.70961 0,-19.31841 -0.76937,-21.91851 -7.34657,-24.82792 -3.87728,-1.71511 -6.2493,-1.93088 -18.59013,-1.6911 l -14.14577,0.27486 -0.25882,39.38568 -0.25882,39.38569 6.69181,-0.2929 6.69181,-0.2929 z m 0.2174,-39.32696 v -12.91321 l 6.18557,0.29465 6.18557,0.29465 0.28029,11.79757 c 0.20843,8.77294 -0.0453,12.00416 -0.98969,12.6034 -0.69849,0.44321 -3.60813,0.81265 -6.46586,0.82099 l -5.19588,0.0152 z m 449.13172,50.49608 c 5.97916,-3.64539 6.18096,-5.11063 5.89158,-42.77806 l -0.26041,-33.8976 h -6.43299 -6.43299 l -0.25329,31.6701 c -0.28063,35.08833 -0.0928,34.14433 -6.79301,34.14433 -4.57624,0 -6.31453,-2.19903 -6.31453,-7.98822 v -4.87776 h -6.43299 -6.43299 l 0.0146,8.16495 c 0.0166,9.30326 1.0863,12.10907 5.83691,15.3105 2.96366,1.99721 4.55421,2.25609 13.84126,2.25281 8.77806,-0.003 11.02819,-0.33011 13.76886,-2.00105 z m 49.48454,0 c 4.62766,-2.82141 6.26705,-7.42378 5.91905,-16.61699 l -0.28788,-7.60506 -6.18557,-0.29465 c -4.51084,-0.21487 -6.22201,0.0531 -6.32017,0.98969 -0.074,0.70639 -0.25183,3.45712 -0.3951,6.11274 -0.14682,2.72132 -0.8439,5.1981 -1.59736,5.67557 -2.10356,1.33302 -8.40035,1.01823 -9.64561,-0.48221 -0.79441,-0.95721 -1.05,-8.64713 -0.86345,-25.97938 l 0.26499,-24.6197 4.8391,-0.30729 c 2.66151,-0.16901 5.29481,0.14842 5.85178,0.70539 0.55697,0.55697 1.11,2.92206 1.22896,5.25574 0.11895,2.33369 0.26916,4.79977 0.33379,5.48018 0.0808,0.85076 2.12656,1.23711 6.55049,1.23711 h 6.43299 v -8.01537 c 0,-14.70398 -4.25906,-18.70815 -19.79381,-18.60925 -10.30372,0.0656 -14.64627,1.51545 -17.60566,5.87802 -2.25924,3.33042 -2.26467,3.42578 -1.97939,34.72761 l 0.28608,31.38802 2.47422,2.66083 c 3.58048,3.85052 5.28423,4.29176 16.82475,4.35732 8.74802,0.0497 10.90994,-0.2569 13.6678,-1.93832 z M 387.24216,352.442 c 12.74787,-38.71749 41.0474,-73.70704 76.64225,-94.76048 78.56188,-46.46734 180.407,-23.18154 231.57009,52.94605 6.74679,10.03881 17.25878,31.31821 20.41399,41.324 1.92893,6.117 2.53922,7.09233 4.12323,6.58959 1.02256,-0.32455 28.62939,-7.68352 61.34852,-16.35328 32.71912,-8.66976 59.6273,-15.90118 59.79595,-16.06982 0.56717,-0.56718 -6.40704,-21.04595 -10.9193,-32.06297 C 792.76176,202.60567 713.92778,135.34059 618.771,113.63894 551.04451,98.193115 479.20113,106.75583 417.49448,137.62828 355.32085,168.73434 303.38004,223.43617 276.2507,286.38015 c -5.08745,11.80361 -13.76837,36.17402 -13.76837,38.65267 0,1.55253 -2.4818,0.77511 29.69073,9.30049 25.90295,6.86401 92.37966,24.59205 92.70282,24.72204 0.0917,0.0369 1.15653,-2.93912 2.36628,-6.61335 z m 346.73056,-29.69853 -2.66232,-4.5429 2.12205,-1.71834 c 2.8227,-2.28568 2.67666,-2.88559 -0.7025,-2.88559 -5.33881,0 -11.94996,-9.18755 -11.99907,-16.67517 -0.053,-8.07446 5.34331,-13.78353 22.52999,-23.83598 18.65742,-10.9127 23.41583,-12.93045 30.49566,-12.93137 5.10649,-6.6e-4 6.65439,0.4464 10.04183,2.90025 4.52042,3.27458 11.13759,15.17298 11.13759,20.02662 0,3.67936 -2.45482,9.54798 -5.24311,12.53447 -2.25662,2.41701 -10.45119,7.61537 -10.98325,6.9674 -0.16604,-0.20221 -1.95816,-3.22757 -3.98249,-6.72301 -2.82098,-4.87105 -3.37568,-6.52834 -2.37504,-7.09602 3.78713,-2.14854 8.17497,-5.55746 9.13021,-7.09325 1.80189,-2.89704 -1.27521,-7.19903 -5.03239,-7.03563 -3.87556,0.16855 -38.68119,19.96124 -41.32199,23.49831 -1.92932,2.58411 -1.92889,2.61133 0.0838,5.31905 2.95084,3.96983 7.06942,4.04313 13.70961,0.244 l 5.41858,-3.10019 -1.54814,-2.99377 c -0.85148,-1.64658 -1.40396,-3.09461 -1.22774,-3.21784 0.17621,-0.12324 1.97556,-1.17142 3.99855,-2.3293 l 3.67815,-2.10523 5.05919,8.97465 c 2.78255,4.93606 4.69027,9.334 4.23937,9.77319 -0.4509,0.4392 -7.81381,4.80129 -16.36203,9.69355 l -15.54221,8.895 z m -371.09021,0.83152 c -2.69226,-1.53086 -17.14243,-9.34072 -32.11151,-17.35524 -14.96907,-8.01452 -27.37276,-14.72574 -27.56377,-14.91383 -0.191,-0.18808 3.12973,-6.78995 7.37941,-14.67081 l 7.72668,-14.32883 4.80476,2.43475 4.80476,2.43476 -4.05039,7.50915 c -2.22771,4.13004 -3.92502,7.61943 -3.77179,7.75421 0.25151,0.22123 14.15178,7.43216 15.8162,8.20484 0.38074,0.17675 1.88174,-2.04639 3.33556,-4.94031 1.45382,-2.89392 2.75855,-5.39339 2.89942,-5.55438 0.49022,-0.56025 9.40267,4.15671 9.40267,4.97642 0,0.45396 -1.1134,3.02258 -2.47423,5.70803 -1.36082,2.68546 -2.47422,5.08045 -2.47422,5.32219 0,0.44885 18.48235,10.51287 19.30666,10.51287 0.24959,0 1.63805,-2.33815 3.08547,-5.19588 1.44742,-2.85773 3.28976,-6.20126 4.0941,-7.43006 l 1.46243,-2.23419 3.59268,2.14515 c 1.97597,1.17983 3.9579,2.46136 4.40427,2.84785 0.44638,0.38648 -2.69519,7.19484 -6.98127,15.12969 l -7.79288,14.427 z m -3.89499,-55.10076 c -14.69123,-12.78451 -27.02022,-23.56096 -27.39777,-23.94767 -0.37754,-0.38671 0.95389,-2.59869 2.95874,-4.9155 l 3.64519,-4.21239 18.06186,5.82324 c 9.93402,3.20278 18.03239,5.54372 17.99638,5.20208 -0.036,-0.34164 -5.82571,-5.51877 -12.86598,-11.50474 -7.04028,-5.98597 -12.78339,-11.10762 -12.76248,-11.38144 0.0209,-0.27383 1.9137,-2.59678 4.20619,-5.16211 l 4.16816,-4.66425 27.052,23.35611 c 14.8786,12.84585 27.30061,24.00398 27.60448,24.79584 0.32274,0.84106 -0.85536,2.84758 -2.83314,4.82536 l -3.38562,3.38562 -18.63018,-6.50796 c -10.2466,-3.57938 -18.78325,-6.35489 -18.97034,-6.16781 -0.18708,0.18709 5.87121,5.66204 13.46287,12.16656 7.59166,6.50453 13.80302,12.10676 13.80302,12.4494 0,0.91972 -7.97446,9.81772 -8.7439,9.75655 -0.36199,-0.0288 -12.67825,-10.51238 -27.36948,-23.29689 z m 347.07484,10.58225 -3.10178,-3.85975 8.37944,-18.08353 c 4.60869,-9.94594 8.37944,-18.27363 8.37944,-18.50598 0,-0.23234 -6.23214,5.46816 -13.84919,12.66778 -15.28767,14.44987 -14.1365,14.05009 -19.81444,6.88111 l -2.90842,-3.67218 12.10046,-11.84359 c 6.65525,-6.51397 18.52171,-17.96106 26.36992,-25.43797 l 14.26947,-13.59439 3.9922,3.9922 3.99219,3.9922 -7.57866,17.56142 c -4.16826,9.65879 -7.48704,17.64465 -7.37506,17.74636 0.11197,0.10171 5.7706,-5.10151 12.57472,-11.56272 6.80413,-6.46121 12.61243,-11.76002 12.90734,-11.77515 0.29492,-0.0151 2.50942,1.98305 4.92113,4.4404 l 4.38492,4.46792 -4.42628,4.27928 c -25.37541,24.53269 -48.42091,46.16634 -49.17923,46.16634 -0.51502,0 -2.3322,-1.73689 -4.03817,-3.85975 z m -291.2936,-31.63626 c -2.45973,-1.55991 -6.04338,-4.78878 -7.96367,-7.17526 -6.41558,-7.9731 -19.61013,-27.35543 -21.58519,-31.70791 -2.84778,-6.27569 -2.63102,-13.47997 0.54647,-18.16227 6.80221,-10.02361 19.92288,-15.1717 27.94038,-10.96281 1.46988,0.77164 4.2553,3.10978 6.18982,5.19588 6.66179,7.18376 6.69927,6.5344 -0.67465,11.68913 -5.76273,4.02845 -6.75161,4.42334 -7.54165,3.01162 -2.21944,-3.96593 -7.04323,-8.43361 -9.10582,-8.43361 -2.33405,0 -5.49417,2.77702 -5.49417,4.82811 0,0.66458 0.73525,2.63013 1.63388,4.36789 2.45347,4.7445 21.58534,31.5369 24.41039,34.1845 3.06707,2.8744 6.26582,2.51895 8.87261,-0.98594 1.95897,-2.63389 1.95884,-2.64042 -0.13576,-6.92784 -1.15311,-2.3603 -3.17142,-5.62516 -4.48513,-7.25523 -2.29295,-2.84514 -2.46493,-2.89466 -4.29649,-1.23711 -2.66407,2.41095 -3.40226,2.19649 -6.10639,-1.77403 -2.31367,-3.39721 -2.32644,-3.52359 -0.49484,-4.89982 5.44598,-4.09202 15.35249,-10.61357 15.6244,-10.2857 2.36825,2.85566 21.5268,30.73156 21.26045,30.93419 -0.20107,0.15298 -2.05025,1.53197 -4.10927,3.06443 l -3.74368,2.78628 -2.44189,-2.29403 -2.44188,-2.29403 v 3.42639 c 0,6.44793 -9.21453,13.74338 -17.3586,13.74338 -2.73243,0 -5.46484,-0.9118 -8.49932,-2.83621 z m 252.49709,-3.24037 c -2.99382,-2.20191 -5.39211,-4.56635 -5.32953,-5.25431 0.0626,-0.68795 3.88955,-6.54777 8.50441,-13.02182 4.61485,-6.47405 13.831,-19.45347 20.48033,-28.84316 6.64933,-9.38969 12.50791,-17.07217 13.01907,-17.07217 0.75613,0 9.18926,5.51268 12.05038,7.87724 0.79813,0.65961 -40.71694,59.5851 -42.29802,60.03678 -0.54084,0.15451 -3.43283,-1.52064 -6.42664,-3.72256 z M 645.74007,230.3859 c -3.40206,-1.59441 -6.18527,-3.00879 -6.18491,-3.14306 3.6e-4,-0.13428 1.32826,-7.59259 2.95088,-16.57404 2.73706,-15.15006 2.8306,-16.41927 1.29472,-17.56701 -0.91053,-0.68041 -1.97109,-1.23711 -2.35681,-1.23711 -0.38572,0 -3.52947,6.50766 -6.9861,14.46147 -3.45663,7.95381 -6.76187,14.65132 -7.34497,14.88336 -0.5831,0.23203 -4.03683,-0.91366 -7.67497,-2.54598 l -6.61478,-2.96785 2.52938,-5.72993 c 1.39117,-3.15147 7.91827,-17.97736 14.50467,-32.94643 6.58641,-14.96907 12.27361,-27.55973 12.63823,-27.97924 0.36461,-0.41951 5.7531,1.4962 11.97442,4.25712 23.72074,10.52689 27.66884,17.13562 19.79359,33.13253 -3.17297,6.44521 -6.33005,9.30477 -11.42285,10.34636 l -2.98216,0.60992 -2.49336,17.76408 c -1.92187,13.69253 -2.83097,17.80656 -3.96638,17.94941 -0.81017,0.10194 -4.25654,-1.11918 -7.6586,-2.7136 z m 11.26759,-45.36897 c 3.6719,-2.23901 6.87406,-9.53212 5.89608,-13.42868 -0.6567,-2.61653 -5.76762,-6.43493 -8.62193,-6.44152 -1.47614,-0.003 -2.69668,2.25193 -8.39239,15.50765 l -1.34928,3.14022 4.18759,1.48268 c 5.37315,1.90244 4.69823,1.92366 8.27993,-0.26035 z m -195.53399,40.24981 c -0.48246,-1.22474 -7.14137,-16.25567 -14.79756,-33.40206 l -13.92037,-31.17526 7.02367,-3.2953 c 3.86302,-1.81242 7.36439,-2.92582 7.78083,-2.47423 0.53837,0.58381 24.8116,54.71924 29.50636,65.80663 0.30542,0.72129 -12.05798,6.76703 -13.83842,6.76703 -0.48252,0 -1.27204,-1.00206 -1.75451,-2.22681 z m 25.2033,-9.77624 c -0.76625,-2.09902 -15.42204,-66.23483 -15.65693,-68.51696 -0.17264,-1.67731 0.67695,-2.21987 5.02223,-3.20726 l 5.23003,-1.18843 5.20632,7.07641 c 2.86348,3.89202 7.82349,10.74843 11.02226,15.23648 3.19877,4.48804 5.98726,7.98875 6.19665,7.77936 0.2094,-0.20939 -1.2031,-7.17595 -3.13889,-15.48125 -1.93578,-8.30529 -3.5196,-15.86765 -3.5196,-16.80524 0,-1.29694 1.44339,-1.98867 6.03436,-2.89189 3.3189,-0.65296 6.14159,-1.04493 6.27264,-0.87104 0.49985,0.66319 16.51705,71.28133 16.21601,71.49466 -0.47078,0.33361 -10.1853,2.41881 -10.36595,2.22503 -0.0853,-0.0915 -5.31897,-7.69941 -11.63032,-16.90642 -6.31136,-9.207 -11.4752,-16.23321 -11.4752,-15.61379 0,0.61942 1.78145,8.77573 3.95877,18.12513 2.17732,9.3494 3.95876,17.31939 3.95876,17.7111 0,0.3917 -1.44742,0.96443 -3.21649,1.27271 -1.76908,0.30829 -4.65706,0.86622 -6.41774,1.23985 -2.29505,0.48702 -3.34157,0.29497 -3.69691,-0.67845 z m 104.13527,-4.12787 c -8.5732,-1.66652 -15.58095,-3.50646 -15.57279,-4.08874 0.0266,-1.89415 13.50756,-70.8294 13.92774,-71.21968 0.22436,-0.20839 7.46856,0.99129 16.09822,2.66597 l 15.69029,3.04484 -0.66203,4.99065 c -0.36412,2.74485 -0.80684,5.13544 -0.98381,5.31242 -0.17698,0.17697 -3.82217,-0.34265 -8.10042,-1.15473 -4.27826,-0.81208 -8.0525,-1.17148 -8.38721,-0.79868 -0.33471,0.37281 -1.14613,3.57268 -1.80314,7.11082 -0.65702,3.53815 -1.4125,7.35137 -1.67886,8.47384 -0.42978,1.81118 0.20528,2.16908 5.64333,3.18039 3.37018,0.62676 6.25193,1.26714 6.40389,1.42308 0.15195,0.15593 -0.19403,2.65355 -0.76885,5.55025 -0.92151,4.64378 -1.29135,5.20542 -3.12678,4.74836 -1.1449,-0.28511 -3.92867,-0.81196 -6.18615,-1.17078 -3.47425,-0.55222 -4.18903,-0.36953 -4.65496,1.18979 -1.09024,3.64871 -3.75538,19.34797 -3.35288,19.75046 0.22645,0.22646 3.96216,1.12385 8.30158,1.9942 l 7.88985,1.58248 -0.96791,5.34 c -0.53235,2.937 -1.22747,5.28715 -1.5447,5.22255 -0.31723,-0.0646 -7.59122,-1.48096 -16.16441,-3.14749 z M 535.2948,197.19111 c -0.35613,-5.82054 -0.64751,-22.53826 -0.64751,-37.15049 v -26.5677 h 16.32989 16.3299 v 5.44331 5.44329 h -8.44951 -8.44951 l 0.28456,9.15464 0.28456,9.15464 6.68042,0.29265 6.68041,0.29264 v 5.35286 5.35286 l -6.68041,0.29264 c -3.67423,0.16095 -6.56908,0.62666 -6.43299,1.03491 0.13608,0.40825 0.24742,5.41856 0.24742,11.13402 v 10.39175 h 8.41237 8.41237 v 5.35639 5.35638 l -16.17723,0.124 -16.17722,0.124 z"
       id="path1" />
  </g>
</svg>
